<svg width="170" height="48" fill="none" xmlns="http://www.w3.org/2000/svg"><g clip-path="url(#a)"><path d="M78.945 12.038v-.287c1.209-.888 1.952-2.124 1.952-3.63 0-3.127-2.778-5.055-6.516-5.055v-.03H62.3V21.19h12.41c3.731 0 6.546-2.011 6.546-5.228 0-1.642-.923-3.005-2.32-3.932l.008.008ZM67.031 7.17h7.35c1.058 0 1.756.505 1.756 1.364 0 .859-.698 1.431-1.756 1.431h-7.35V7.171Zm7.68 9.884h-7.68v-2.953h7.68c1.059 0 1.757.527 1.757 1.446 0 .919-.698 1.507-1.757 1.507ZM91.67 6.893c-4.422 0-7.688 2.855-7.688 7.322 0 4.467 3.266 7.322 7.688 7.322 4.421 0 7.68-2.855 7.68-7.322 0-4.467-3.258-7.322-7.68-7.322Zm0 10.222c-1.787 0-2.95-1.092-2.95-2.9 0-1.808 1.17-2.908 2.95-2.908 1.779 0 2.942 1.092 2.942 2.908 0 1.815-1.17 2.9-2.942 2.9Zm11.891-9.891-.278 8.188c-.052 1.176-.585 1.447-1.223 1.447-.233 0-.563-.03-.728-.053v4.384c.78.083 1.441.204 2.252.204 2.62 0 4.069-2.433 4.151-5.68l.113-4.136h3.393v9.612h4.684V7.224h-12.364Zm25.547 0-4.482 8.573h-.195V7.224h-4.669V21.19h5.292l4.482-8.572h.195v8.572h4.67V7.224h-5.293Zm18.272 0v4.95h-4.451v-4.95h-4.685V21.19h4.685v-5.228h4.451v5.228h4.67V7.224h-4.67Zm15 3.586h-1.81V7.232h-4.669v13.966h6.486c4.654 0 7.102-2.207 7.102-5.19 0-2.984-2.448-5.198-7.102-5.198h-.007Zm.195 6.425h-2.005v-2.463h2.005c1.426 0 2.004.535 2.004 1.236 0 .7-.578 1.227-2.004 1.227ZM62.302 25.514v4.136h6.126v14.019h4.73v-14.02h6.125v-4.135H62.302Zm24.466 3.849c-4.422 0-7.68 2.855-7.68 7.322 0 4.468 3.258 7.322 7.68 7.322 4.421 0 7.68-2.854 7.68-7.322 0-4.467-3.259-7.322-7.68-7.322Zm0 10.223c-1.787 0-2.95-1.093-2.95-2.908 0-1.816 1.17-2.9 2.95-2.9 1.779 0 2.95 1.077 2.95 2.9s-1.171 2.908-2.95 2.908Zm19.578-10.223c-1.644 0-3.093.618-4.151 1.68v-1.34H97.51V48h4.685v-5.642c1.058 1.062 2.5 1.642 4.151 1.642 3.589 0 6.209-2.855 6.209-7.322 0-4.467-2.62-7.322-6.209-7.322v.007Zm-1.426 10.223c-1.749 0-2.89-1.093-2.89-2.908 0-1.816 1.141-2.9 2.89-2.9s2.898 1.077 2.898 2.9-1.142 2.908-2.898 2.908Zm22.882-10.223-.136.083v-5.333h-4.669v5.333l-.135-.083c-4.707 0-8.018 2.855-8.018 7.322 0 4.468 3.311 7.323 8.018 7.323l.135-.083v4.083h4.669v-4.083l.136.083c4.707 0 8.017-2.855 8.017-7.323 0-4.467-3.31-7.322-8.017-7.322Zm-4.805 10.389c-2.087 0-3.431-1.146-3.431-3.074s1.291-3.02 3.296-3.073h.135v6.147Zm4.805 0h-.136v-6.147h.136c2.004.052 3.28 1.212 3.28 3.073 0 1.86-1.276 3.02-3.28 3.074ZM9.444 0h28.94l9.444 9.476v29.04l-9.444 9.477H9.444L0 38.516V9.476L9.444 0Z" fill="#221F1D"/><path d="m41.935 24.716-9.662 1.521 7.605 6.155c-.207.365-.282.5-.358.632l-.363.626-9.128-3.526 3.52 9.145-.63.36-.623.364-6.134-7.624-1.516 9.68h-1.441l-1.51-9.68-6.148 7.623-.622-.357-.572-.331-.002-.001-.057-.034 3.52-9.145-9.128 3.526-.357-.624a52.696 52.696 0 0 0-.335-.583l-.029-.051 7.605-6.155-9.662-1.521v-1.447l9.662-1.514-7.605-6.154.357-.632.351-.612.013-.022 9.128 3.533-3.52-9.145c.335-.194.475-.277.598-.35.145-.085.267-.157.655-.38l6.149 7.63 1.509-9.695h1.441l1.516 9.695 6.134-7.63.137.078c.258.148.371.214.484.28.133.077.266.156.633.372l-3.521 9.145 9.128-3.533.357.632.35.61.014.024-7.605 6.154 9.662 1.514v1.447Z" fill="#F36E2E"/></g><defs><clipPath id="a"><path fill="#fff" d="M0 0h170v48H0z"/></clipPath></defs></svg>