<?xml version="1.0" standalone="no"?>
<!DOCTYPE svg PUBLIC "-//W3C//DTD SVG 20010904//EN"
 "http://www.w3.org/TR/2001/REC-SVG-20010904/DTD/svg10.dtd">
<svg version="1.0" xmlns="http://www.w3.org/2000/svg"
 width="700.000000pt" height="700.000000pt" viewBox="0 0 700.000000 700.000000"
 preserveAspectRatio="xMidYMid meet">
<metadata>
Created by potrace 1.14, written by Peter Selinger 2001-2017
</metadata>
<g transform="translate(0.000000,700.000000) scale(0.100000,-0.100000)"
fill="#000000" stroke="none">
<path d="M692 6307 l-692 -692 0 -2115 0 -2115 693 -693 692 -692 2115 0 2115
0 693 693 692 692 0 2115 0 2115 -693 693 -692 692 -2115 0 -2115 0 -693 -693z
m2923 -199 c3 -18 53 -334 110 -702 58 -368 106 -670 107 -672 2 -1 201 243
442 543 242 300 445 547 452 550 12 4 169 -80 179 -97 3 -5 -109 -305 -249
-667 -139 -362 -253 -659 -252 -660 1 -1 299 112 661 252 363 140 663 255 666
255 3 0 13 -15 22 -32 9 -18 32 -60 51 -94 l35 -61 -550 -444 c-436 -351 -547
-445 -532 -451 10 -4 297 -50 638 -103 341 -53 648 -101 683 -106 l62 -11 0
-109 c0 -60 -3 -109 -6 -109 -23 0 -1363 -212 -1377 -218 -15 -6 96 -100 532
-451 l551 -444 -37 -65 c-70 -127 -67 -122 -88 -115 -11 3 -310 118 -665 254
-354 136 -645 247 -646 246 -1 -1 112 -297 252 -657 139 -360 252 -659 250
-665 -4 -15 -167 -107 -180 -102 -7 3 -210 250 -451 550 -242 300 -441 544
-443 543 -2 -2 -222 -1392 -222 -1403 0 -7 -209 -3 -214 5 -2 4 -53 319 -113
700 -59 380 -110 692 -114 692 -4 0 -860 -1051 -881 -1084 -7 -11 -128 47
-178 84 -20 15 -16 27 235 674 140 363 254 661 252 662 -1 1 -299 -112 -662
-252 -380 -146 -663 -250 -668 -245 -5 5 -31 46 -57 92 -37 64 -45 86 -36 94
7 6 254 205 550 444 296 238 534 437 529 441 -6 5 -1360 221 -1385 220 -5 0
-8 49 -8 109 l0 109 28 5 c15 2 326 51 692 107 366 57 669 106 673 110 5 4
-233 203 -529 441 -296 239 -543 439 -550 444 -9 8 -1 30 36 94 26 46 52 87
57 92 6 6 271 -92 669 -245 362 -140 660 -253 661 -252 2 1 -112 299 -252 661
-140 363 -252 662 -247 666 4 4 45 30 92 58 65 38 87 47 95 37 191 -239 880
-1086 885 -1086 4 0 221 1369 220 1393 0 4 49 7 110 7 l109 0 6 -32z"/>
</g>
</svg>
