<svg width="170" height="48" viewBox="0 0 170 48" fill="none" xmlns="http://www.w3.org/2000/svg">
<g clip-path="url(#clip0_2003_707)">
<path d="M78.9451 12.0376V11.7514C80.1538 10.8625 80.897 9.6271 80.897 8.12051C80.897 4.99433 78.1193 3.0659 74.3808 3.0659V3.03577H62.3018V21.1902H74.7111C78.4421 21.1902 81.2573 19.1789 81.2573 15.9623C81.2573 14.3201 80.3339 12.9567 78.9376 12.0301L78.9451 12.0376ZM67.0313 7.17136H74.3808C75.4393 7.17136 76.1374 7.67607 76.1374 8.53482C76.1374 9.39358 75.4393 9.96609 74.3808 9.96609H67.0313V7.17136ZM74.7111 17.0546H67.0313V14.1017H74.7111C75.7696 14.1017 76.4678 14.629 76.4678 15.548C76.4678 16.467 75.7696 17.0546 74.7111 17.0546Z" fill="#221F1D"/>
<path d="M91.6697 6.8927C87.248 6.8927 83.9824 9.74769 83.9824 14.2147C83.9824 18.6818 87.248 21.5368 91.6697 21.5368C96.0915 21.5368 99.3496 18.6818 99.3496 14.2147C99.3496 9.74769 96.0915 6.8927 91.6697 6.8927ZM91.6697 17.1149C89.883 17.1149 88.7194 16.0226 88.7194 14.2147C88.7194 12.4068 89.8905 11.307 91.6697 11.307C93.4489 11.307 94.6125 12.3993 94.6125 14.2147C94.6125 16.0302 93.4414 17.1149 91.6697 17.1149Z" fill="#221F1D"/>
<path d="M103.561 7.22412L103.283 15.4124C103.231 16.5876 102.698 16.8588 102.06 16.8588C101.827 16.8588 101.497 16.8286 101.332 16.806V21.1902C102.112 21.2731 102.773 21.3936 103.584 21.3936C106.204 21.3936 107.653 18.9605 107.735 15.7138L107.848 11.5782H111.241V21.1902H115.925V7.22412H103.561Z" fill="#221F1D"/>
<path d="M129.108 7.22412L124.626 15.7966H124.431V7.22412H119.762V21.1902H125.054L129.536 12.6177H129.731V21.1902H134.401V7.22412H129.108Z" fill="#221F1D"/>
<path d="M147.38 7.22412V12.1733H142.929V7.22412H138.244V21.1902H142.929V15.9624H147.38V21.1902H152.05V7.22412H147.38Z" fill="#221F1D"/>
<path d="M162.38 10.8097H160.57V7.23157H155.901V21.1977H162.387C167.041 21.1977 169.489 18.9905 169.489 16.0075C169.489 13.0244 167.041 10.8097 162.387 10.8097H162.38ZM162.575 17.2353H160.57V14.7721H162.575C164.001 14.7721 164.579 15.3069 164.579 16.0075C164.579 16.708 164.001 17.2353 162.575 17.2353Z" fill="#221F1D"/>
<path d="M62.3018 25.5142V29.6498H68.4276V43.6686H73.1571V29.6498H79.2829V25.5142H62.3018Z" fill="#221F1D"/>
<path d="M86.7677 29.3634C82.346 29.3634 79.0879 32.2184 79.0879 36.6854C79.0879 41.1525 82.346 44.0075 86.7677 44.0075C91.1894 44.0075 94.4475 41.1525 94.4475 36.6854C94.4475 32.2184 91.1894 29.3634 86.7677 29.3634ZM86.7677 39.5856C84.981 39.5856 83.8174 38.4933 83.8174 36.6779C83.8174 34.8625 84.9885 33.7777 86.7677 33.7777C88.5469 33.7777 89.718 34.8549 89.718 36.6779C89.718 38.5009 88.5469 39.5856 86.7677 39.5856Z" fill="#221F1D"/>
<path d="M106.346 29.3635C104.702 29.3635 103.253 29.9812 102.195 31.0433V29.7025H97.5103V48H102.195V42.3578C103.253 43.42 104.695 44 106.346 44C109.935 44 112.555 41.145 112.555 36.678C112.555 32.2109 109.935 29.356 106.346 29.356V29.3635ZM104.92 39.5857C103.171 39.5857 102.03 38.4934 102.03 36.678C102.03 34.8625 103.171 33.7778 104.92 33.7778C106.669 33.7778 107.818 34.855 107.818 36.678C107.818 38.501 106.676 39.5857 104.92 39.5857Z" fill="#221F1D"/>
<path d="M127.802 29.3635L127.666 29.4464V24.113H122.997V29.4464L122.862 29.3635C118.155 29.3635 114.844 32.2185 114.844 36.6855C114.844 41.1526 118.155 44.0076 122.862 44.0076L122.997 43.9247V48.0076H127.666V43.9247L127.802 44.0076C132.509 44.0076 135.819 41.1526 135.819 36.6855C135.819 32.2185 132.509 29.3635 127.802 29.3635ZM122.997 39.7515C120.91 39.7515 119.566 38.6064 119.566 36.678C119.566 34.7496 120.857 33.6573 122.862 33.6046H122.997V39.7515ZM127.802 39.7515H127.666V33.6046H127.802C129.806 33.6573 131.082 34.8174 131.082 36.678C131.082 38.5386 129.806 39.6987 127.802 39.7515Z" fill="#221F1D"/>
<path d="M9.444 0H38.3841L47.8281 9.47646V38.516L38.3841 47.9925H9.444L0 38.516V9.47646L9.444 0Z" fill="#221F1D"/>
<path d="M41.935 24.7156L32.2733 26.2373L39.878 32.3917C39.6713 32.7575 39.5963 32.8911 39.5202 33.0241C39.4443 33.1567 39.3672 33.2886 39.1573 33.6497L30.0286 30.1243L33.5495 39.2693C33.1849 39.4767 33.0518 39.552 32.9193 39.6283C32.7872 39.7045 32.6557 39.7818 32.2958 39.9925L26.1624 32.3691L24.646 42.049H23.2046L21.6957 32.3691L15.5473 39.9925C15.1887 39.7863 15.0569 39.7107 14.9252 39.6348C14.7998 39.5625 14.6745 39.4899 14.3535 39.304L14.3512 39.3027L14.2936 39.2693L17.8145 30.1243L8.68577 33.6497C8.48032 33.2899 8.40498 33.1576 8.32935 33.0255C8.25662 32.8984 8.18361 32.7715 7.99438 32.4426L7.96509 32.3917L15.5698 26.2373L5.90813 24.7156V23.2693L15.5698 21.7552L7.96509 15.6008C8.17118 15.236 8.24635 15.1022 8.32222 14.9687C8.39682 14.8374 8.47211 14.7066 8.67319 14.3571L8.68577 14.3352L17.8145 17.8682L14.2936 8.72316C14.6293 8.52867 14.7688 8.44627 14.8922 8.37334C15.0365 8.28808 15.1589 8.21576 15.5473 7.99247L21.6957 15.6234L23.2046 5.92844H24.646L26.1624 15.6234L32.2958 7.99247L32.4328 8.07125C32.6905 8.21936 32.8041 8.28463 32.9172 8.35063C33.0504 8.42834 33.183 8.50705 33.5495 8.72316L30.0286 17.8682L39.1573 14.3352C39.3634 14.6999 39.4386 14.8338 39.5144 14.9673C39.5889 15.0983 39.6641 15.2289 39.8643 15.577L39.878 15.6008L32.2733 21.7552L41.935 23.2693V24.7156Z" fill="#F36E2E"/>
</g>
<defs>
<clipPath id="clip0_2003_707">
<rect width="170" height="48" fill="white"/>
</clipPath>
</defs>
</svg>
